<svg width="36" height="36" viewBox="0 0 36 36" fill="none" xmlns="http://www.w3.org/2000/svg">
<path d="M4.37461 14.76C4.44293 14.0082 4.82934 13.3067 5.45689 12.7953C6.08445 12.2838 6.90709 11.9998 7.76101 12H28.239C29.0929 11.9998 29.9156 12.2838 30.5431 12.7953C31.1707 13.3067 31.5571 14.0082 31.6254 14.76L32.9891 29.76C33.0266 30.1728 32.967 30.588 32.8139 30.9794C32.6608 31.3708 32.4177 31.73 32.0997 32.0344C31.7818 32.3387 31.3959 32.5816 30.9665 32.7478C30.537 32.914 30.0733 32.9999 29.6044 33H6.39558C5.92672 32.9999 5.46297 32.914 5.03351 32.7478C4.60406 32.5816 4.21822 32.3387 3.90027 32.0344C3.58233 31.73 3.33917 31.3708 3.1861 30.9794C3.03303 30.588 2.97338 30.1728 3.01089 29.76L4.37461 14.76V14.76Z" stroke="#373873" stroke-width="1.25" stroke-linecap="round" stroke-linejoin="round"/>
<path d="M24.7931 13.5V9C24.7931 7.4087 24.0774 5.88258 22.8034 4.75736C21.5295 3.63214 19.8016 3 17.9999 3C16.1983 3 14.4704 3.63214 13.1965 4.75736C11.9225 5.88258 11.2068 7.4087 11.2068 9V13.5" stroke="#373873" stroke-width="1.25" stroke-linecap="round" stroke-linejoin="round"/>
</svg>
